<?xml version="1.0" encoding="UTF-8"?>
<svg width="800px" height="600px" viewBox="0 0 800 600" version="1.1" xmlns="http://www.w3.org/2000/svg">
    <g stroke="none" stroke-width="1" fill="none" fill-rule="evenodd">
        <!-- Document Stack -->
        <g transform="translate(400, 300)">
            <!-- Background Document -->
            <rect fill="#E3F2FD" x="-200" y="-150" width="400" height="300" rx="10"/>
            <rect fill="#BBDEFB" x="-180" y="-130" width="360" height="260" rx="5"/>
            
            <!-- Middle Document -->
            <rect fill="#E3F2FD" x="-190" y="-160" width="380" height="280" rx="10"/>
            <rect fill="#BBDEFB" x="-170" y="-140" width="340" height="240" rx="5"/>
            
            <!-- Front Document -->
            <rect fill="#E3F2FD" x="-180" y="-170" width="360" height="260" rx="10"/>
            <rect fill="#BBDEFB" x="-160" y="-150" width="320" height="220" rx="5"/>
            
            <!-- Document Lines -->
            <g stroke="#90CAF9" stroke-width="2">
                <line x1="-140" y1="-120" x2="120" y2="-120"/>
                <line x1="-140" y1="-100" x2="120" y2="-100"/>
                <line x1="-140" y1="-80" x2="120" y2="-80"/>
                <line x1="-140" y1="-60" x2="120" y2="-60"/>
                <line x1="-140" y1="-40" x2="120" y2="-40"/>
                <line x1="-140" y1="-20" x2="120" y2="-20"/>
                <line x1="-140" y1="0" x2="120" y2="0"/>
                <line x1="-140" y1="20" x2="120" y2="20"/>
                <line x1="-140" y1="40" x2="120" y2="40"/>
            </g>
            
            <!-- Digital Elements -->
            <g fill="#2196F3">
                <circle cx="-100" cy="-180" r="15"/>
                <circle cx="-60" cy="-180" r="15"/>
                <circle cx="-20" cy="-180" r="15"/>
            </g>
            
            <!-- Checkmark -->
            <path d="M-120,-100 L-100,-80 L-80,-100" stroke="#4CAF50" stroke-width="4" fill="none"/>
        </g>
    </g>
</svg> 